<svg width="117" height="20" viewBox="0 0 117 20" fill="none" xmlns="http://www.w3.org/2000/svg">
<g clip-path="url(#clip0_8203_366)">
<path d="M9.94041 1.39849C10.2802 0.580393 11.451 0.574772 11.7986 1.38957L13.8505 6.19866C13.9972 6.54216 14.326 6.77576 14.7022 6.80375L19.9702 7.19553C20.8627 7.26192 21.2298 8.36016 20.5528 8.93868L16.557 12.3532C16.2716 12.5971 16.1482 12.9783 16.2375 13.3404L17.4876 18.4111C17.6994 19.2702 16.7556 19.9546 15.9895 19.4974L11.468 16.7985C11.1451 16.6058 10.7401 16.6077 10.419 16.8036L5.92361 19.5458C5.16196 20.0103 4.21155 19.335 4.41509 18.4739L5.61649 13.3914C5.70231 13.0284 5.57533 12.6485 5.2876 12.4073L1.25915 9.03132C0.576613 8.45933 0.933113 7.35761 1.82499 7.28266L7.08899 6.8403C7.46498 6.80871 7.79151 6.57196 7.93476 6.22707L9.94041 1.39849Z" fill="black"/>
<path d="M33.9399 1.28326C34.2797 0.465159 35.4505 0.459538 35.7981 1.27434L37.85 6.08343C37.9967 6.42693 38.3255 6.66053 38.7017 6.68851L43.9697 7.0803C44.8622 7.14668 45.2293 8.24492 44.5523 8.82345L40.5565 12.2379C40.2711 12.4819 40.1477 12.863 40.237 13.2252L41.4872 18.2959C41.6989 19.155 40.7551 19.8394 39.989 19.3822L35.4675 16.6833C35.1446 16.4905 34.7396 16.4925 34.4185 16.6884L29.9231 19.4305C29.1615 19.8951 28.2111 19.2197 28.4146 18.3586L29.616 13.2761C29.7018 12.9132 29.5748 12.5332 29.2871 12.2921L25.2587 8.91609C24.5761 8.34409 24.9326 7.24238 25.8245 7.16743L31.0885 6.72507C31.4645 6.69348 31.791 6.45673 31.9343 6.11184L33.9399 1.28326Z" fill="black"/>
<path d="M57.9399 1.16802C58.2797 0.349924 59.4505 0.344304 59.7981 1.1591L61.85 5.96819C61.9967 6.31169 62.3255 6.5453 62.7017 6.57328L67.9697 6.96507C68.8622 7.03145 69.2293 8.12969 68.5523 8.70821L64.5565 12.1227C64.2711 12.3666 64.1477 12.7478 64.237 13.1099L65.4872 18.1806C65.6989 19.0397 64.7551 19.7242 63.989 19.267L59.4675 16.5681C59.1446 16.3753 58.7396 16.3772 58.4185 16.5731L53.9231 19.3153C53.1615 19.7798 52.2111 19.1045 52.4146 18.2434L53.616 13.1609C53.7018 12.7979 53.5748 12.418 53.2871 12.1768L49.2587 8.80085C48.5761 8.22886 48.9326 7.12714 49.8245 7.05219L55.0885 6.60984C55.4645 6.57824 55.791 6.34149 55.9343 5.9966L57.9399 1.16802Z" fill="black"/>
<path d="M81.9394 1.05276C82.2793 0.234659 83.45 0.229039 83.7977 1.04384L85.8495 5.85293C85.9962 6.19643 86.325 6.43003 86.7012 6.45801L91.9692 6.8498C92.8617 6.91618 93.2288 8.01442 92.5518 8.59295L88.556 12.0074C88.2706 12.2514 88.1472 12.6325 88.2365 12.9947L89.4867 18.0654C89.6985 18.9245 88.7546 19.6089 87.9885 19.1517L83.4671 16.4528C83.1441 16.26 82.7391 16.262 82.418 16.4579L77.9226 19.2C77.161 19.6646 76.2106 18.9892 76.4141 18.1281L77.6155 13.0457C77.7013 12.6827 77.5743 12.3027 77.2866 12.0616L73.2582 8.68559C72.5756 8.11359 72.9321 7.01188 73.824 6.93693L79.088 6.49457C79.464 6.46298 79.7905 6.22623 79.9338 5.88134L81.9394 1.05276Z" fill="black"/>
<path d="M105.939 0.937525C106.279 0.119425 107.45 0.113804 107.797 0.928604L109.849 5.7377C109.996 6.0812 110.324 6.3148 110.701 6.34278L115.969 6.73457C116.861 6.80095 117.228 7.89919 116.551 8.47771L112.556 11.8922C112.27 12.1361 112.147 12.5173 112.236 12.8794L113.486 17.9501C113.698 18.8092 112.754 19.4937 111.988 19.0365L107.467 16.3376C107.144 16.1448 106.739 16.1467 106.418 16.3426L101.922 19.0848C101.16 19.5493 100.21 18.874 100.414 18.0129L101.615 12.9304C101.701 12.5674 101.574 12.1875 101.286 11.9463L97.2577 8.57035C96.5751 7.99836 96.9316 6.89665 97.8235 6.8217L103.088 6.37934C103.464 6.34774 103.79 6.11099 103.933 5.7661L105.939 0.937525Z" fill="black"/>
</g>
<defs>
<clipPath id="clip0_8203_366">
<rect width="116" height="18.8889" fill="white" transform="translate(0.866699 0.829712) rotate(-0.275117)"/>
</clipPath>
</defs>
</svg>
