<svg width="17" height="17" viewBox="0 0 17 17" fill="none" xmlns="http://www.w3.org/2000/svg">
<path fill-rule="evenodd" clip-rule="evenodd" d="M14.2303 4.75937L14.1362 4.59315C14.0148 4.39219 13.8442 4.2255 13.6405 4.10886L9.15483 1.55037C8.95173 1.43384 8.7215 1.37286 8.4873 1.37357L8.29397 1.3745C8.05978 1.37604 7.83015 1.43923 7.62818 1.5577L3.16732 4.16582C2.96586 4.28363 2.79886 4.45224 2.68299 4.65482L2.59046 4.82193C2.47394 5.02505 2.41295 5.25528 2.41367 5.48945L2.43847 10.6561C2.44001 10.8903 2.5032 11.1199 2.62167 11.3219L2.71581 11.4881C2.83662 11.6872 3.00456 11.8535 3.2048 11.9724L7.69714 14.5309C7.89925 14.6498 8.13014 14.711 8.36466 14.7076L8.55133 14.7068C8.78552 14.7052 9.01515 14.6421 9.21712 14.5236L13.678 11.9154C13.8814 11.8003 14.0491 11.631 14.1623 11.4264L14.2615 11.2593C14.3766 11.0556 14.4375 10.8258 14.4383 10.5918L14.4135 5.42516C14.412 5.191 14.3488 4.96136 14.2303 4.75937ZM8.30038 2.70782L8.49371 2.70689L12.4111 4.94144L8.42227 7.26729L4.41124 4.97985L8.30038 2.70782ZM9.11665 13.0374L13.0058 10.7653L13.105 10.5982L13.0833 6.09156L9.0945 8.42407L9.11665 13.0374Z" fill="black"/>
</svg>
