<svg width="71" height="37" viewBox="0 0 71 37" fill="none" xmlns="http://www.w3.org/2000/svg">
<g clip-path="url(#clip0_4727_53042)">
<path d="M67.4112 17.5815L67.3741 17.6187C67.6343 16.9125 68.1546 16.6523 68.6006 16.6523C69.2325 16.6523 69.79 17.1355 69.79 17.8417C69.79 17.9904 69.79 18.1762 69.7157 18.3992C68.4148 21.7444 65.6643 23.4541 62.9882 23.7143C61.7617 25.7957 59.7546 27.3196 56.8926 27.3196C52.8041 27.3196 50.9829 24.086 50.9829 20.555C50.9829 16.2063 53.7334 11.3744 58.3422 11.3744C59.3457 11.3744 60.2006 11.5975 60.9068 11.8948C62.9882 12.6753 64.3263 15.3886 64.3263 18.2877C64.3263 19.2169 64.2519 20.1461 64.0289 21.0382C65.4042 20.555 66.705 19.4399 67.4112 17.5815ZM59.6431 14.4222V14.3851C58.8254 14.3851 58.3422 15.4629 58.3422 16.7638C58.3422 18.6594 59.3829 20.4063 61.0183 21.0382C61.2785 20.2205 61.39 19.2913 61.39 18.2134C61.39 16.132 60.7581 14.4222 59.6431 14.4222ZM56.9298 24.6063C57.9705 24.6063 59.0112 24.1603 59.8289 23.2311C57.413 22.1532 55.8891 19.6258 55.8891 17.2098C55.8891 16.3921 56.0378 15.5373 56.2608 14.7939C54.7741 16.0205 53.9192 18.4364 53.9192 20.555C53.9192 23.3054 55.2201 24.6063 56.9298 24.6063Z" fill="black"/>
<path d="M51.5568 17.5815L51.5196 17.6187C51.7798 16.9125 52.2258 16.6152 52.6718 16.6152C53.3037 16.6152 53.9355 17.1727 53.9355 17.8789C53.9355 18.0647 53.8984 18.2134 53.824 18.3992C52.3745 21.9302 50.2187 26.0559 46.7621 28.4718L46.6878 29.2152C46.2789 33.6754 44.0117 36.5001 41.1497 36.5001C38.9939 36.5001 37.7302 35.0134 37.7302 33.2665C37.7302 30.1072 40.9638 28.955 43.9745 27.0223C44.0488 26.2417 44.086 25.3497 44.1231 24.3461C42.6364 25.9815 41.0382 26.6506 39.6258 26.6506C36.801 26.6506 34.4966 24.3461 34.4966 20.8152C34.4966 15.3886 38.0647 11.8205 42.0417 11.8205H42.0789C44.7922 11.8205 47.6913 13.27 47.6913 15.8718C47.6913 16.7267 47.3196 21.3727 47.0223 24.978C49.0293 23.0824 50.7019 19.9975 51.5568 17.5815ZM40.0346 23.9745C41.4099 23.9745 43.2683 23.1196 44.4205 18.9196C44.6063 17.9904 44.7178 17.1727 44.6807 16.2063C44.4577 15.2028 43.6028 14.6081 42.3762 14.6081C39.8488 14.6081 37.4329 17.024 37.4329 20.7037C37.4329 22.9338 38.4736 23.9745 40.0346 23.9745ZM41.447 33.7869H41.4842C42.2647 33.7869 43.1196 33.2665 43.6771 29.9214C42.0417 30.8877 40.5178 31.8541 40.5178 33.0063C40.5178 33.4895 40.8895 33.7869 41.447 33.7869Z" fill="black"/>
<path d="M35.1485 17.5815L35.1114 17.6187C35.3715 16.9125 35.8919 16.6523 36.3379 16.6523C36.9698 16.6523 37.5273 17.1355 37.5273 17.8417C37.5273 17.9904 37.5273 18.1762 37.453 18.3992C36.1521 21.7444 33.4016 23.4541 30.7255 23.7143C29.499 25.7957 27.4919 27.3196 24.6299 27.3196C20.5414 27.3196 18.7202 24.086 18.7202 20.555C18.7202 16.2063 21.4706 11.3744 26.0795 11.3744C27.083 11.3744 27.9379 11.5975 28.6441 11.8948C30.7255 12.6753 32.0636 15.3886 32.0636 18.2877C32.0636 19.2169 31.9892 20.1461 31.7662 21.0382C33.1415 20.555 34.4423 19.4399 35.1485 17.5815ZM27.3804 14.4222V14.3851C26.5627 14.3851 26.0795 15.4629 26.0795 16.7638C26.0795 18.6594 27.1202 20.4063 28.7556 21.0382C29.0158 20.2205 29.1273 19.2913 29.1273 18.2134C29.1273 16.132 28.4954 14.4222 27.3804 14.4222ZM24.6671 24.6063C25.7078 24.6063 26.7485 24.1603 27.5662 23.2311C25.1503 22.1532 23.6264 19.6258 23.6264 17.2098C23.6264 16.3921 23.7751 15.5373 23.9981 14.7939C22.5114 16.0205 21.6565 18.4364 21.6565 20.555C21.6565 23.3054 22.9574 24.6063 24.6671 24.6063Z" fill="black"/>
<path d="M20.6094 16.4083C20.089 16.4083 19.643 16.6685 19.3456 17.3747C18.3793 19.8278 16.3721 23.9907 14.3278 23.9907C13.0406 23.9907 12.0445 23.6996 11.0379 23.4054C10.01 23.105 8.97117 22.8013 7.60028 22.8013C7.11708 22.8013 6.44804 22.8757 5.81617 22.9872C7.71975 20.3914 8.43089 17.2477 9.11997 11.3054C7.82251 11.2228 6.7671 10.9831 5.99782 10.741C5.17617 18.2775 4.24311 21.1511 0.835541 23.9907C0.389514 24.3624 0.166504 24.8828 0.166504 25.4032C0.166504 26.2209 0.872716 26.9271 1.76477 26.9271C2.06212 26.9271 2.39663 26.8156 2.73115 26.6669C4.62677 25.812 5.779 25.589 7.19142 25.589C8.08959 25.589 9.16433 25.8459 10.315 26.1208C11.6404 26.4376 13.0665 26.7784 14.4394 26.7784C17.45 26.7784 19.42 23.8421 21.6129 18.1552C21.7245 17.9694 21.7616 17.7464 21.7616 17.5605C21.7616 16.8543 21.2041 16.4083 20.6094 16.4083Z" fill="black"/>
<path fill-rule="evenodd" clip-rule="evenodd" d="M6.18617 9.20287C6.85926 9.43784 7.91008 9.7114 9.27251 9.79233L9.49552 9.79222C13.6956 9.79222 16.4461 7.1904 16.4461 4.06821C16.4461 2.06109 14.885 0.5 12.692 0.5C9.7557 0.5 7.71142 2.50712 6.67069 6.48419C5.36978 5.77798 4.47773 4.51424 4.0317 2.91598C3.80868 2.13543 3.32549 1.65223 2.65644 1.65223C1.83873 1.65223 1.31836 2.28411 1.31836 3.13899C1.31836 5.66648 3.28832 8.08245 6.18749 9.19752L6.18617 9.20287ZM9.71853 7.07889C10.276 4.51424 11.1681 3.28767 12.3575 3.28767C12.9894 3.28767 13.3982 3.65936 13.3982 4.3284C13.3982 5.55497 12.0973 7.00455 9.71853 7.07889Z" fill="black"/>
</g>
<defs>
<clipPath id="clip0_4727_53042">
<rect width="70" height="36" fill="white" transform="translate(0.166504 0.5)"/>
</clipPath>
</defs>
</svg>
