<svg width="141" height="58" viewBox="0 0 141 58" fill="none" xmlns="http://www.w3.org/2000/svg">
<path fill-rule="evenodd" clip-rule="evenodd" d="M39.2358 17.9055L27.8345 40.4605L17.0239 40.5124L21.7958 31.1644L21.5797 31.1654C17.6308 36.3429 11.7181 39.7672 3.27405 40.5784L3.2299 31.3826C3.2299 31.3826 8.63262 31.0375 11.7936 27.682L3.21233 27.7233L3.16602 18.0789L12.8104 18.0325L12.8485 25.9649L13.065 25.963L16.968 18.0126L24.2618 17.9776L24.2996 25.8596L24.516 25.8582L28.5671 17.9567L39.2358 17.9055Z" fill="black"/>
<path d="M102.094 37.6204L105.2 37.6055L105.114 19.7767L102.008 19.7916L102.094 37.6204Z" fill="black"/>
<path fill-rule="evenodd" clip-rule="evenodd" d="M84.9695 37.5205C85.6458 37.7979 86.333 37.935 87.0309 37.9317C88.1837 37.9261 89.214 37.6405 90.1215 37.0748C91.029 36.5092 91.7307 35.7322 92.2266 34.7437C92.7225 33.7477 92.9673 32.62 92.9613 31.3609C92.9552 30.1017 92.6919 28.9766 92.1714 27.9855C91.6508 26.9943 90.9303 26.2278 90.0099 25.6861C89.0895 25.1368 88.0452 24.8688 86.8771 24.882C86.1338 24.8855 85.4216 25.0331 84.7402 25.3246C84.059 25.6161 83.4921 26.0284 83.0395 26.5616C83.0046 26.6022 82.9706 26.6431 82.9377 26.6845L82.9051 19.8948L79.7876 19.9097L79.8732 37.7271L82.9679 37.7123L82.9537 36.0478C83.0341 36.1456 83.1202 36.241 83.2115 36.3344C83.707 36.8402 84.293 37.2355 84.9695 37.5205ZM88.1414 34.6268C87.6346 34.9402 87.0551 35.0985 86.4028 35.1016C85.758 35.1047 85.1657 34.9482 84.6256 34.6323C84.0854 34.3086 83.6548 33.8671 83.3335 33.3072C83.0198 32.7475 82.8613 32.111 82.8578 31.398C82.8469 30.685 82.9955 30.0472 83.3038 29.4844C83.6197 28.914 84.046 28.472 84.5832 28.1584C85.1201 27.8373 85.7149 27.6789 86.3672 27.6834C87.0195 27.6727 87.6005 27.8216 88.1102 28.1301C88.6274 28.431 89.0239 28.8653 89.2997 29.4329C89.583 29.9928 89.7265 30.6369 89.73 31.365C89.7335 32.0932 89.5962 32.7387 89.3183 33.3012C89.0479 33.8639 88.6556 34.3057 88.1414 34.6268Z" fill="black"/>
<path d="M43.7513 21.1523L47.3011 21.1352L50.5323 32.7168L53.8547 21.1038L56.8129 21.0895L60.5311 32.4361L63.5257 21.0573L66.7797 21.0417L62.0588 37.8127L58.9982 37.8274L55.2194 26.7434L51.853 37.8617L48.7583 37.8765L43.7513 21.1523Z" fill="black"/>
<path fill-rule="evenodd" clip-rule="evenodd" d="M72.104 38.0602C70.8676 38.0737 69.7513 37.8059 68.755 37.2571C67.7662 36.7005 66.9851 35.9267 66.4113 34.9358C65.8453 33.9449 65.5593 32.8123 65.5531 31.5379C65.5472 30.3015 65.8301 29.1814 66.4018 28.1774C66.9733 27.1734 67.7508 26.3884 68.7342 25.8224C69.7176 25.2563 70.816 24.9704 72.0297 24.9646C73.395 24.958 74.5911 25.2557 75.618 25.8576C76.6525 26.4594 77.4265 27.3166 77.9401 28.4292C78.4612 29.5342 78.6531 30.8037 78.5159 32.238L68.7701 32.2848C68.8001 32.8558 68.9451 33.3748 69.2051 33.8415C69.4958 34.3559 69.8998 34.7559 70.4169 35.0417C70.9341 35.3275 71.5112 35.4688 72.1485 35.4658C72.6338 35.4558 73.0848 35.3703 73.5011 35.209C73.9176 35.0402 74.2691 34.8147 74.556 34.5326C74.8505 34.2505 75.0576 33.931 75.1773 33.574L78.4312 33.5583C78.2382 34.4315 77.8475 35.2109 77.2592 35.8964C76.6707 36.5743 75.93 37.105 75.0367 37.4886C74.1435 37.8721 73.1659 38.0627 72.104 38.0602ZM69.194 29.1539C69.0138 29.4717 68.8894 29.8136 68.821 30.1797L75.2813 30.1487C75.2322 29.6869 75.0876 29.2666 74.8475 28.8878C74.5723 28.4416 74.199 28.0983 73.7276 27.8578C73.2561 27.6097 72.7245 27.4871 72.1329 27.49C71.5033 27.493 70.9314 27.6399 70.4169 27.9306C69.9025 28.2213 69.4948 28.6291 69.194 29.1539Z" fill="black"/>
<path d="M95.2186 25.115C95.2137 24.0986 95.4407 23.1948 95.8996 22.4037C96.3584 21.6051 97.0041 20.9838 97.8363 20.5398C98.676 20.0883 99.6573 19.8522 100.78 19.8317L100.793 22.5964C100.27 22.6065 99.8227 22.7187 99.4521 22.9328C99.0889 23.1394 98.8097 23.4403 98.6144 23.8357C98.4346 24.1997 98.3387 24.6211 98.3266 25.1L100.737 25.0885L100.749 27.7167L98.3373 27.7283L98.3849 37.6382L95.2788 37.6531L95.2312 27.7432L93.2288 27.7528L93.2161 25.1246L95.2186 25.115Z" fill="black"/>
<path fill-rule="evenodd" clip-rule="evenodd" d="M113.097 37.8405C111.83 37.8466 110.695 37.5752 109.691 37.0264C108.695 36.4698 107.91 35.6999 107.336 34.7165C106.77 33.7256 106.484 32.6006 106.478 31.3413C106.472 30.0747 106.747 28.9432 107.304 27.9468C107.868 26.9429 108.645 26.1616 109.636 25.6032C110.635 25.0446 111.767 24.7623 113.034 24.7562C114.308 24.7501 115.448 25.0215 116.451 25.5704C117.463 26.1193 118.252 26.8892 118.818 27.8802C119.384 28.8711 119.674 30.0037 119.687 31.2779C119.686 32.5372 119.407 33.6649 118.85 34.6612C118.301 35.65 117.524 36.4274 116.518 36.9936C115.512 37.552 114.371 37.8344 113.097 37.8405ZM113.083 34.9848C113.751 34.9816 114.342 34.827 114.856 34.5211C115.37 34.2077 115.766 33.7734 116.044 33.2183C116.322 32.6557 116.46 32.014 116.456 31.2934C116.453 30.5653 116.309 29.9212 116.026 29.3613C115.742 28.8014 115.342 28.3709 114.825 28.07C114.308 27.7615 113.715 27.6088 113.048 27.612C112.388 27.6152 111.801 27.7735 111.287 28.087C110.78 28.3928 110.387 28.8271 110.11 29.3897C109.832 29.9523 109.698 30.5977 109.709 31.3258C109.713 32.0464 109.856 32.6868 110.139 33.2467C110.43 33.799 110.827 34.2295 111.329 34.5381C111.839 34.839 112.423 34.988 113.083 34.9848Z" fill="black"/>
<path d="M123.014 24.9815L119.555 24.9981L123.358 37.5183L126.385 37.5038L128.808 29.4838L131.504 37.4792L134.485 37.4649L138.18 24.9086L135.052 24.9237L132.959 32.7381L130.568 24.9452L127.542 24.9597L125.238 32.9471L123.014 24.9815Z" fill="black"/>
</svg>
