<svg width="121" height="49" viewBox="0 0 121 49" fill="none" xmlns="http://www.w3.org/2000/svg">
<path fill-rule="evenodd" clip-rule="evenodd" d="M33.7482 14.7667L23.9756 34.0997L14.7093 34.1442L18.7995 26.1315L18.6143 26.1324C15.2295 30.5703 10.1615 33.5054 2.92366 34.2008L2.88581 26.3186C2.88581 26.3186 7.51673 26.0227 10.2261 23.1467L2.87075 23.182L2.83106 14.9153L11.0977 14.8756L11.1304 21.6748L11.3159 21.6732L14.6614 14.8585L20.9132 14.8285L20.9457 21.5846L21.1311 21.5834L24.6035 14.8106L33.7482 14.7667Z" fill="black"/>
<path d="M87.6269 31.6653L90.2893 31.6525L90.2159 16.3706L87.5535 16.3834L87.6269 31.6653Z" fill="black"/>
<path fill-rule="evenodd" clip-rule="evenodd" d="M72.9487 31.5797C73.5284 31.8175 74.1174 31.935 74.7156 31.9321C75.7037 31.9273 76.5868 31.6826 77.3647 31.1976C78.1425 30.7128 78.7441 30.0468 79.1691 29.1995C79.5941 28.3458 79.804 27.3792 79.7988 26.2999C79.7936 25.2207 79.5679 24.2563 79.1218 23.4067C78.6755 22.5572 78.058 21.9002 77.269 21.4359C76.4801 20.965 75.585 20.7353 74.5838 20.7466C73.9467 20.7496 73.3361 20.8761 72.7521 21.126C72.1682 21.3758 71.6823 21.7293 71.2944 22.1862C71.2644 22.221 71.2353 22.2562 71.2071 22.2917L71.1792 16.4718L68.5071 16.4846L68.5804 31.7568L71.233 31.7441L71.2208 30.3174C71.2898 30.4012 71.3636 30.483 71.4418 30.563C71.8665 30.9966 72.3688 31.3354 72.9487 31.5797ZM75.6675 29.0993C75.2331 29.368 74.7364 29.5037 74.1772 29.5063C73.6246 29.509 73.1168 29.3748 72.6539 29.104C72.1909 28.8266 71.8218 28.4481 71.5464 27.9683C71.2775 27.4885 71.1416 26.9429 71.1387 26.3318C71.1293 25.7207 71.2566 25.1739 71.5209 24.6916C71.7917 24.2026 72.1571 23.8238 72.6175 23.555C73.0778 23.2797 73.5876 23.144 74.1467 23.1478C74.7058 23.1386 75.2038 23.2663 75.6407 23.5307C76.084 23.7887 76.4239 24.1609 76.6603 24.6474C76.9032 25.1273 77.0261 25.6794 77.0291 26.3035C77.0321 26.9277 76.9145 27.4809 76.6762 27.9631C76.4444 28.4454 76.1082 28.8241 75.6675 29.0993Z" fill="black"/>
<path d="M37.6186 17.5497L40.6614 17.5351L43.4309 27.4622L46.2787 17.5081L48.8143 17.4959L52.0013 27.2216L54.5682 17.4683L57.3573 17.4549L53.3108 31.8301L50.6874 31.8427L47.4485 22.3421L44.563 31.8721L41.9103 31.8848L37.6186 17.5497Z" fill="black"/>
<path fill-rule="evenodd" clip-rule="evenodd" d="M61.9211 32.0422C60.8613 32.0539 59.9044 31.8243 59.0505 31.3539C58.2029 30.8768 57.5334 30.2136 57.0416 29.3642C56.5564 28.5149 56.3112 27.544 56.306 26.4517C56.3009 25.392 56.5434 24.4318 57.0334 23.5713C57.5233 22.7107 58.1897 22.0378 59.0327 21.5526C59.8756 21.0675 60.8171 20.8224 61.8573 20.8174C63.0276 20.8118 64.0528 21.0669 64.933 21.5828C65.8198 22.0987 66.4832 22.8335 66.9234 23.7871C67.3701 24.7342 67.5346 25.8224 67.417 27.0518L59.0634 27.0919C59.0891 27.5814 59.2134 28.0262 59.4363 28.4262C59.6855 28.8671 60.0317 29.21 60.4749 29.455C60.9183 29.6999 61.4129 29.8211 61.9592 29.8185C62.3752 29.8099 62.7617 29.7366 63.1186 29.5984C63.4755 29.4537 63.7769 29.2604 64.0228 29.0186C64.2752 28.7768 64.4527 28.503 64.5553 28.1969L67.3444 28.1835C67.1789 28.932 66.8441 29.6 66.3398 30.1876C65.8354 30.7687 65.2005 31.2235 64.4348 31.5523C63.6692 31.881 62.8313 32.0444 61.9211 32.0422ZM59.4267 24.4082C59.2723 24.6807 59.1657 24.9737 59.1071 25.2875L64.6445 25.2609C64.6024 24.8651 64.4784 24.5049 64.2726 24.1802C64.0367 23.7977 63.7168 23.5034 63.3127 23.2973C62.9086 23.0847 62.4529 22.9796 61.9458 22.982C61.4062 22.9846 60.9159 23.1105 60.4749 23.3597C60.034 23.6089 59.6846 23.9584 59.4267 24.4082Z" fill="black"/>
<path d="M81.7337 20.9463C81.7295 20.0751 81.924 19.3004 82.3174 18.6224C82.7106 17.9378 83.2641 17.4053 83.9774 17.0247C84.6972 16.6377 85.5383 16.4353 86.5003 16.4177L86.5117 18.7875C86.0631 18.7962 85.68 18.8923 85.3624 19.0759C85.0511 19.2529 84.8118 19.5109 84.6444 19.8498C84.4903 20.1618 84.408 20.523 84.3977 20.9335L86.4635 20.9236L86.4743 23.1764L84.4069 23.1863L84.4477 31.6806L81.7853 31.6934L81.7445 23.1991L80.0281 23.2073L80.0173 20.9545L81.7337 20.9463Z" fill="black"/>
<path fill-rule="evenodd" clip-rule="evenodd" d="M97.0581 31.854C95.9723 31.8592 94.9992 31.6265 94.1387 31.1561C93.2847 30.679 92.6119 30.0191 92.1202 29.1762C91.6349 28.3269 91.3898 27.3626 91.3846 26.2832C91.3794 25.1975 91.6153 24.2276 92.0923 23.3736C92.5758 22.5131 93.2423 21.8435 94.0917 21.3648C94.9476 20.886 95.9184 20.644 97.0042 20.6388C98.0964 20.6336 99.0729 20.8662 99.9333 21.3367C100.8 21.8072 101.476 22.4671 101.962 23.3165C102.447 24.1659 102.695 25.1367 102.707 26.2289C102.706 27.3082 102.466 28.2749 101.99 29.1288C101.519 29.9764 100.852 30.6427 99.99 31.128C99.1277 31.6067 98.1503 31.8487 97.0581 31.854ZM97.0463 29.4062C97.6185 29.4034 98.1249 29.2709 98.5658 29.0088C99.0067 28.7401 99.3461 28.3678 99.5845 27.8921C99.8227 27.4098 99.9403 26.8598 99.9373 26.2422C99.9343 25.618 99.8115 25.066 99.5686 24.586C99.3257 24.1061 98.9826 23.7371 98.5392 23.4792C98.0959 23.2148 97.5881 23.0839 97.016 23.0867C96.4504 23.0894 95.9471 23.2251 95.5062 23.4938C95.0719 23.7559 94.7356 24.1281 94.4974 24.6104C94.2591 25.0926 94.1448 25.6458 94.1542 26.2699C94.1572 26.8876 94.2801 27.4364 94.523 27.9164C94.7723 28.3898 95.1121 28.7588 95.5425 29.0233C95.9794 29.2812 96.4807 29.4089 97.0463 29.4062Z" fill="black"/>
<path d="M105.558 20.8319L102.593 20.8461L105.854 31.5778L108.448 31.5653L110.525 24.691L112.836 31.5442L115.391 31.532L118.558 20.7694L115.876 20.7823L114.083 27.4805L112.033 20.8008L109.44 20.8132L107.465 27.6596L105.558 20.8319Z" fill="black"/>
</svg>
