<svg width="24" height="25" viewBox="0 0 24 25" fill="none" xmlns="http://www.w3.org/2000/svg">
<path fill-rule="evenodd" clip-rule="evenodd" d="M20.73 7.3628L20.59 7.1128C20.4094 6.81049 20.1547 6.55923 19.85 6.3828L13.14 2.5128C12.8362 2.33655 12.4913 2.24342 12.14 2.2428H11.85C11.4987 2.24342 11.1538 2.33655 10.85 2.5128L4.14 6.3928C3.83697 6.56806 3.58526 6.81977 3.41 7.1228L3.27 7.3728C3.09375 7.67664 3.00062 8.02154 3 8.3728V16.1228C3.00062 16.4741 3.09375 16.819 3.27 17.1228L3.41 17.3728C3.58979 17.6723 3.84049 17.923 4.14 18.1028L10.86 21.9728C11.1623 22.1527 11.5082 22.2461 11.86 22.2428H12.14C12.4913 22.2422 12.8362 22.1491 13.14 21.9728L19.85 18.0928C20.156 17.9215 20.4087 17.6688 20.58 17.3628L20.73 17.1128C20.9041 16.8081 20.9971 16.4638 21 16.1128V8.3628C20.9994 8.01154 20.9063 7.66664 20.73 7.3628ZM11.85 4.2428H12.14L18 7.6228L12 11.0828L6 7.6228L11.85 4.2428ZM13 19.7428L18.85 16.3628L19 16.1128V9.3528L13 12.8228V19.7428Z" fill="black"/>
</svg>
