<svg width="17" height="17" viewBox="0 0 17 17" fill="none" xmlns="http://www.w3.org/2000/svg">
<path fill-rule="evenodd" clip-rule="evenodd" d="M14.4222 4.759L14.3281 4.59279C14.2067 4.39183 14.0361 4.22514 13.8324 4.10849L9.34672 1.55C9.14363 1.43348 8.9134 1.3725 8.6792 1.37321L8.48587 1.37414C8.25167 1.37567 8.02204 1.43886 7.82007 1.55733L3.35921 4.16545C3.15776 4.28326 2.99076 4.45187 2.87489 4.65445L2.78236 4.82156C2.66583 5.02468 2.60485 5.25491 2.60556 5.48908L2.63037 10.6557C2.63191 10.8899 2.6951 11.1195 2.81357 11.3215L2.9077 11.4877C3.02852 11.6868 3.19645 11.8531 3.3967 11.972L7.88903 14.5305C8.09114 14.6494 8.32204 14.7106 8.55656 14.7073L8.74322 14.7064C8.97742 14.7049 9.20705 14.6417 9.40902 14.5232L13.8699 11.9151C14.0733 11.7999 14.241 11.6306 14.3542 11.4261L14.4534 11.2589C14.5685 11.0552 14.6294 10.8254 14.6302 10.5914L14.6054 5.4248C14.6039 5.19063 14.5407 4.961 14.4222 4.759ZM8.49227 2.70745L8.6856 2.70653L12.603 4.94107L8.61416 7.26692L4.60314 4.97949L8.49227 2.70745ZM9.30854 13.037L13.1977 10.765L13.2969 10.5978L13.2752 6.09119L9.28639 8.42371L9.30854 13.037Z" fill="black"/>
</svg>
