<svg width="117" height="21" viewBox="0 0 117 21" fill="none" xmlns="http://www.w3.org/2000/svg">
<g clip-path="url(#clip0_8203_382)">
<path d="M9.92528 2.09869C10.2651 1.28059 11.4358 1.27497 11.7835 2.08977L13.8354 6.89886C13.982 7.24236 14.3108 7.47596 14.6871 7.50394L19.955 7.89573C20.8476 7.96211 21.2146 9.06035 20.5376 9.63888L16.5419 13.0534C16.2565 13.2973 16.1331 13.6784 16.2224 14.0406L17.4725 19.1113C17.6843 19.9704 16.7405 20.6548 15.9744 20.1976L11.4529 17.4987C11.1299 17.306 10.7249 17.3079 10.4039 17.5038L5.90848 20.246C5.14682 20.7105 4.19641 20.0352 4.39996 19.1741L5.60136 14.0916C5.68717 13.7286 5.56019 13.3487 5.27246 13.1075L1.24401 9.73152C0.561476 9.15952 0.917976 8.05781 1.80985 7.98286L7.07385 7.5405C7.44985 7.5089 7.77637 7.27216 7.91963 6.92726L9.92528 2.09869Z" fill="black"/>
<path d="M33.9248 1.98345C34.2646 1.16535 35.4353 1.15973 35.783 1.97453L37.8349 6.78362C37.9815 7.12712 38.3103 7.36073 38.6866 7.38871L43.9545 7.7805C44.8471 7.84688 45.2141 8.94512 44.5371 9.52364L40.5414 12.9381C40.256 13.1821 40.1326 13.5632 40.2219 13.9253L41.472 18.9961C41.6838 19.8552 40.74 20.5396 39.9739 20.0824L35.4524 17.3835C35.1294 17.1907 34.7244 17.1927 34.4034 17.3885L29.908 20.1307C29.1463 20.5953 28.1959 19.9199 28.3995 19.0588L29.6009 13.9763C29.6867 13.6134 29.5597 13.2334 29.272 12.9922L25.2435 9.61628C24.561 9.04429 24.9175 7.94257 25.8094 7.86762L31.0734 7.42527C31.4494 7.39367 31.7759 7.15692 31.9191 6.81203L33.9248 1.98345Z" fill="black"/>
<path d="M57.9248 1.86822C58.2646 1.05012 59.4353 1.0445 59.783 1.8593L61.8349 6.66839C61.9815 7.01189 62.3103 7.24549 62.6866 7.27347L67.9545 7.66526C68.8471 7.73164 69.2141 8.82988 68.5371 9.40841L64.5414 12.8229C64.256 13.0668 64.1326 13.448 64.2219 13.8101L65.472 18.8808C65.6838 19.7399 64.74 20.4244 63.9739 19.9672L59.4524 17.2683C59.1294 17.0755 58.7244 17.0774 58.4034 17.2733L53.908 20.0155C53.1463 20.48 52.1959 19.8047 52.3995 18.9436L53.6009 13.8611C53.6867 13.4981 53.5597 13.1182 53.272 12.877L49.2435 9.50105C48.561 8.92905 48.9175 7.82734 49.8094 7.75239L55.0734 7.31003C55.4494 7.27844 55.7759 7.04169 55.9191 6.6968L57.9248 1.86822Z" fill="black"/>
<path d="M81.9243 1.75295C82.2641 0.934855 83.4349 0.929234 83.7825 1.74403L85.8344 6.55313C85.9811 6.89663 86.3098 7.13023 86.6861 7.15821L91.954 7.55C92.8466 7.61638 93.2136 8.71462 92.5366 9.29314L88.5409 12.7076C88.2555 12.9516 88.1321 13.3327 88.2214 13.6948L89.4715 18.7656C89.6833 19.6247 88.7395 20.3091 87.9734 19.8519L83.4519 17.153C83.129 16.9602 82.724 16.9622 82.4029 17.158L77.9075 19.9002C77.1458 20.3648 76.1954 19.6894 76.399 18.8283L77.6004 13.7458C77.6862 13.3829 77.5592 13.0029 77.2715 12.7617L73.243 9.38578C72.5605 8.81379 72.917 7.71207 73.8089 7.63712L79.0729 7.19477C79.4489 7.16317 79.7754 6.92642 79.9187 6.58153L81.9243 1.75295Z" fill="black"/>
<path d="M105.924 1.63772C106.264 0.81962 107.434 0.814 107.782 1.6288L109.834 6.43789C109.981 6.78139 110.309 7.01499 110.686 7.04297L115.954 7.43476C116.846 7.50114 117.213 8.59938 116.536 9.17791L112.54 12.5924C112.255 12.8363 112.132 13.2175 112.221 13.5796L113.471 18.6503C113.683 19.5094 112.739 20.1939 111.973 19.7367L107.451 17.0378C107.128 16.845 106.723 16.8469 106.402 17.0428L101.907 19.785C101.145 20.2495 100.195 19.5742 100.398 18.7131L101.6 13.6306C101.686 13.2676 101.559 12.8877 101.271 12.6465L97.2425 9.27055C96.56 8.69855 96.9165 7.59684 97.8084 7.52189L103.072 7.07953C103.448 7.04794 103.775 6.81119 103.918 6.4663L105.924 1.63772Z" fill="black"/>
</g>
<defs>
<clipPath id="clip0_8203_382">
<rect width="116" height="18.8889" fill="white" transform="translate(0.851562 1.52991) rotate(-0.275117)"/>
</clipPath>
</defs>
</svg>
